<svg xmlns="http://www.w3.org/2000/svg" xmlns:xlink="http://www.w3.org/1999/xlink" width="500" zoomAndPan="magnify" viewBox="0 0 375 374.999991" height="500" preserveAspectRatio="xMidYMid meet" version="1.2"><g id="23f4009c5d"><path style=" stroke:none;fill-rule:nonzero;fill:#000000;fill-opacity:1;" d="M 129.105469 124.40625 C 132.339844 152.894531 156.421875 174.410156 185.046875 174.433594 C 213.699219 174.410156 238.058594 152.921875 241.007812 124.40625 L 265.34375 124.671875 C 262.039062 166.085938 227.210938 198.96875 185.066406 198.96875 C 142.933594 198.96875 108.105469 166.085938 104.769531 124.671875 Z M 96.191406 93.328125 C 72.863281 93.328125 66.367188 97.449219 63.257812 120.617188 L 35.875 334.210938 C 32.757812 357.375 45.59375 367.304688 68.9375 367.304688 L 301.167969 367.304688 C 324.523438 367.304688 337.363281 357.375 334.230469 334.210938 L 306.875 120.617188 C 303.730469 97.449219 297.261719 93.328125 273.933594 93.328125 Z M 96.191406 93.328125 "/><path style=" stroke:none;fill-rule:nonzero;fill:#000000;fill-opacity:1;" d="M 104.769531 75.984375 L 129.105469 75.984375 C 132.339844 47.5 156.421875 25.988281 185.046875 25.964844 C 213.699219 25.988281 238.058594 47.476562 241.007812 75.984375 L 265.34375 75.984375 C 262.019531 34.59375 227.210938 1.429688 185.066406 1.429688 C 142.933594 1.433594 108.078125 34.59375 104.769531 75.984375 Z M 104.769531 75.984375 "/></g></svg>