<svg xmlns="http://www.w3.org/2000/svg" xmlns:xlink="http://www.w3.org/1999/xlink" width="500" zoomAndPan="magnify" viewBox="0 0 375 374.999991" height="500" preserveAspectRatio="xMidYMid meet" version="1.2"><g id="51cd04fec2"><path style=" stroke:none;fill-rule:nonzero;fill:#ffffff;fill-opacity:1;" d="M 129.082031 124.40625 C 132.316406 152.894531 156.390625 174.410156 185.011719 174.433594 C 213.65625 174.410156 238.011719 152.921875 240.957031 124.40625 L 265.289062 124.671875 C 261.984375 166.085938 227.164062 198.96875 185.03125 198.96875 C 142.90625 198.96875 108.085938 166.085938 104.753906 124.671875 Z M 96.175781 93.328125 C 72.851562 93.328125 66.359375 97.449219 63.25 120.617188 L 35.875 334.210938 C 32.757812 357.375 45.59375 367.304688 68.929688 367.304688 L 301.101562 367.304688 C 324.453125 367.304688 337.289062 357.375 334.15625 334.210938 L 306.808594 120.617188 C 303.664062 97.449219 297.199219 93.328125 273.875 93.328125 Z M 96.175781 93.328125 "/><path style=" stroke:none;fill-rule:nonzero;fill:#ffffff;fill-opacity:1;" d="M 104.753906 75.984375 L 129.082031 75.984375 C 132.316406 47.5 156.390625 25.988281 185.011719 25.964844 C 213.65625 25.988281 238.011719 47.476562 240.957031 75.984375 L 265.289062 75.984375 C 261.964844 34.59375 227.164062 1.429688 185.03125 1.429688 C 142.90625 1.433594 108.058594 34.59375 104.753906 75.984375 Z M 104.753906 75.984375 "/></g></svg>