<svg xmlns="http://www.w3.org/2000/svg" xmlns:xlink="http://www.w3.org/1999/xlink" width="500" zoomAndPan="magnify" viewBox="0 0 375 374.999991" height="500" preserveAspectRatio="xMidYMid meet" version="1.2"><defs><clipPath id="75227251fe"><path d="M 98.90625 0 L 275.90625 0 L 275.90625 375 L 98.90625 375 Z M 98.90625 0 "/></clipPath></defs><g id="bf8b599b5d"><g clip-rule="nonzero" clip-path="url(#75227251fe)"><path style=" stroke:none;fill-rule:nonzero;fill:#000000;fill-opacity:1;" d="M 235.070312 62.128906 L 275.90625 62.128906 L 275.90625 0.5625 L 223.765625 0.5625 L 223.765625 0.800781 C 155.210938 3.3125 141.074219 41.710938 139.898438 82.3125 L 139.742188 82.3125 L 139.742188 125.03125 L 98.90625 125.03125 L 98.90625 186.671875 L 139.742188 186.671875 L 139.742188 374.039062 L 213.007812 374.039062 L 213.007812 186.671875 L 265.539062 186.671875 L 275.90625 125.03125 L 213.007812 125.03125 L 213.007812 86.785156 C 213.007812 73.203125 222.113281 62.128906 235.070312 62.128906 Z M 235.070312 62.128906 "/></g></g></svg>