<svg xmlns="http://www.w3.org/2000/svg" xmlns:xlink="http://www.w3.org/1999/xlink" width="500" zoomAndPan="magnify" viewBox="0 0 375 374.999991" height="500" preserveAspectRatio="xMidYMid meet" version="1.2"><defs><clipPath id="6a6e7b9fc5"><path d="M 46.324219 46.324219 L 328.324219 46.324219 L 328.324219 328.324219 L 46.324219 328.324219 Z M 46.324219 46.324219 "/></clipPath></defs><g id="540f0a72c8"><g clip-rule="nonzero" clip-path="url(#6a6e7b9fc5)"><path style=" stroke:none;fill-rule:nonzero;fill:#33cc66;fill-opacity:1;" d="M 328.324219 187.324219 C 328.324219 189.632812 328.265625 191.9375 328.152344 194.242188 C 328.039062 196.546875 327.871094 198.847656 327.644531 201.144531 C 327.417969 203.441406 327.136719 205.730469 326.796875 208.011719 C 326.457031 210.296875 326.0625 212.566406 325.613281 214.832031 C 325.164062 217.09375 324.660156 219.34375 324.097656 221.582031 C 323.539062 223.820312 322.921875 226.046875 322.253906 228.253906 C 321.582031 230.460938 320.859375 232.652344 320.082031 234.824219 C 319.304688 236.996094 318.472656 239.148438 317.589844 241.28125 C 316.707031 243.414062 315.773438 245.523438 314.785156 247.609375 C 313.800781 249.695312 312.761719 251.753906 311.675781 253.789062 C 310.585938 255.824219 309.449219 257.832031 308.261719 259.8125 C 307.078125 261.792969 305.84375 263.738281 304.5625 265.660156 C 303.277344 267.578125 301.949219 269.464844 300.574219 271.316406 C 299.199219 273.171875 297.78125 274.988281 296.316406 276.773438 C 294.855469 278.558594 293.347656 280.304688 291.796875 282.011719 C 290.246094 283.722656 288.65625 285.394531 287.027344 287.027344 C 285.394531 288.65625 283.722656 290.246094 282.011719 291.796875 C 280.304688 293.347656 278.558594 294.855469 276.773438 296.316406 C 274.988281 297.78125 273.171875 299.199219 271.316406 300.574219 C 269.464844 301.949219 267.578125 303.277344 265.660156 304.5625 C 263.738281 305.84375 261.792969 307.078125 259.8125 308.261719 C 257.832031 309.449219 255.824219 310.585938 253.789062 311.675781 C 251.753906 312.761719 249.695312 313.800781 247.609375 314.785156 C 245.523438 315.773438 243.414062 316.707031 241.28125 317.589844 C 239.148438 318.472656 236.996094 319.304688 234.824219 320.082031 C 232.652344 320.859375 230.460938 321.582031 228.253906 322.253906 C 226.046875 322.921875 223.820312 323.539062 221.582031 324.097656 C 219.34375 324.660156 217.09375 325.164062 214.832031 325.613281 C 212.566406 326.0625 210.296875 326.457031 208.011719 326.796875 C 205.730469 327.136719 203.441406 327.417969 201.144531 327.644531 C 198.847656 327.871094 196.546875 328.039062 194.242188 328.152344 C 191.9375 328.265625 189.632812 328.324219 187.324219 328.324219 C 185.015625 328.324219 182.710938 328.265625 180.40625 328.152344 C 178.101562 328.039062 175.800781 327.871094 173.503906 327.644531 C 171.207031 327.417969 168.917969 327.136719 166.632812 326.796875 C 164.351562 326.457031 162.078125 326.0625 159.816406 325.613281 C 157.550781 325.164062 155.300781 324.660156 153.0625 324.097656 C 150.824219 323.539062 148.601562 322.921875 146.394531 322.253906 C 144.183594 321.582031 141.996094 320.859375 139.820312 320.082031 C 137.648438 319.304688 135.496094 318.472656 133.363281 317.589844 C 131.234375 316.707031 129.125 315.773438 127.039062 314.785156 C 124.953125 313.800781 122.890625 312.761719 120.855469 311.675781 C 118.820312 310.585938 116.8125 309.449219 114.835938 308.261719 C 112.855469 307.078125 110.90625 305.84375 108.988281 304.5625 C 107.070312 303.277344 105.183594 301.949219 103.328125 300.574219 C 101.476562 299.199219 99.65625 297.78125 97.875 296.316406 C 96.089844 294.855469 94.34375 293.347656 92.632812 291.796875 C 90.925781 290.246094 89.253906 288.65625 87.621094 287.027344 C 85.988281 285.394531 84.398438 283.722656 82.847656 282.011719 C 81.300781 280.304688 79.792969 278.558594 78.328125 276.773438 C 76.863281 274.988281 75.445312 273.171875 74.070312 271.316406 C 72.695312 269.464844 71.367188 267.578125 70.085938 265.660156 C 68.804688 263.738281 67.570312 261.792969 66.382812 259.8125 C 65.199219 257.832031 64.058594 255.824219 62.972656 253.789062 C 61.886719 251.753906 60.847656 249.695312 59.859375 247.609375 C 58.875 245.523438 57.941406 243.414062 57.054688 241.28125 C 56.171875 239.148438 55.34375 236.996094 54.566406 234.824219 C 53.789062 232.652344 53.066406 230.460938 52.394531 228.253906 C 51.726562 226.046875 51.109375 223.820312 50.550781 221.582031 C 49.988281 219.34375 49.484375 217.09375 49.03125 214.832031 C 48.582031 212.566406 48.1875 210.296875 47.851562 208.011719 C 47.511719 205.730469 47.230469 203.441406 47.003906 201.144531 C 46.777344 198.847656 46.605469 196.546875 46.492188 194.242188 C 46.378906 191.9375 46.324219 189.632812 46.324219 187.324219 C 46.324219 185.015625 46.378906 182.710938 46.492188 180.40625 C 46.605469 178.101562 46.777344 175.800781 47.003906 173.503906 C 47.230469 171.207031 47.511719 168.917969 47.851562 166.632812 C 48.1875 164.351562 48.582031 162.078125 49.03125 159.816406 C 49.484375 157.550781 49.988281 155.300781 50.550781 153.0625 C 51.109375 150.824219 51.726562 148.601562 52.394531 146.394531 C 53.066406 144.183594 53.789062 141.996094 54.566406 139.820312 C 55.34375 137.648438 56.171875 135.496094 57.054688 133.363281 C 57.941406 131.234375 58.875 129.125 59.859375 127.039062 C 60.847656 124.953125 61.886719 122.890625 62.972656 120.855469 C 64.058594 118.820312 65.199219 116.8125 66.382812 114.835938 C 67.570312 112.855469 68.804688 110.90625 70.085938 108.988281 C 71.367188 107.070312 72.695312 105.183594 74.070312 103.328125 C 75.445312 101.476562 76.863281 99.65625 78.328125 97.875 C 79.792969 96.089844 81.300781 94.34375 82.847656 92.632812 C 84.398438 90.925781 85.988281 89.253906 87.621094 87.621094 C 89.253906 85.988281 90.925781 84.398438 92.632812 82.847656 C 94.34375 81.300781 96.089844 79.792969 97.875 78.328125 C 99.65625 76.863281 101.476562 75.445312 103.328125 74.070312 C 105.183594 72.695312 107.070312 71.367188 108.988281 70.085938 C 110.90625 68.804688 112.855469 67.570312 114.835938 66.382812 C 116.8125 65.199219 118.820312 64.058594 120.855469 62.972656 C 122.890625 61.886719 124.953125 60.847656 127.039062 59.859375 C 129.125 58.875 131.234375 57.941406 133.363281 57.054688 C 135.496094 56.171875 137.648438 55.34375 139.820312 54.566406 C 141.996094 53.789062 144.183594 53.066406 146.394531 52.394531 C 148.601562 51.726562 150.824219 51.109375 153.0625 50.550781 C 155.300781 49.988281 157.550781 49.484375 159.816406 49.03125 C 162.078125 48.582031 164.351562 48.1875 166.632812 47.851562 C 168.917969 47.511719 171.207031 47.230469 173.503906 47.003906 C 175.800781 46.777344 178.101562 46.605469 180.40625 46.492188 C 182.710938 46.378906 185.015625 46.324219 187.324219 46.324219 C 189.632812 46.324219 191.9375 46.378906 194.242188 46.492188 C 196.546875 46.605469 198.847656 46.777344 201.144531 47.003906 C 203.441406 47.230469 205.730469 47.511719 208.011719 47.851562 C 210.296875 48.1875 212.566406 48.582031 214.832031 49.03125 C 217.09375 49.484375 219.34375 49.988281 221.582031 50.550781 C 223.820312 51.109375 226.046875 51.726562 228.253906 52.394531 C 230.460938 53.066406 232.652344 53.789062 234.824219 54.566406 C 236.996094 55.34375 239.148438 56.171875 241.28125 57.054688 C 243.414062 57.941406 245.523438 58.875 247.609375 59.859375 C 249.695312 60.847656 251.753906 61.886719 253.789062 62.972656 C 255.824219 64.058594 257.832031 65.199219 259.8125 66.382812 C 261.792969 67.570312 263.738281 68.804688 265.660156 70.085938 C 267.578125 71.367188 269.464844 72.695312 271.316406 74.070312 C 273.171875 75.445312 274.988281 76.863281 276.773438 78.328125 C 278.558594 79.792969 280.304688 81.300781 282.011719 82.847656 C 283.722656 84.398438 285.394531 85.988281 287.027344 87.621094 C 288.65625 89.253906 290.246094 90.925781 291.796875 92.632812 C 293.347656 94.34375 294.855469 96.089844 296.316406 97.875 C 297.78125 99.65625 299.199219 101.476562 300.574219 103.328125 C 301.949219 105.183594 303.277344 107.070312 304.5625 108.988281 C 305.84375 110.90625 307.078125 112.855469 308.261719 114.835938 C 309.449219 116.8125 310.585938 118.820312 311.675781 120.855469 C 312.761719 122.890625 313.800781 124.953125 314.785156 127.039062 C 315.773438 129.125 316.707031 131.234375 317.589844 133.363281 C 318.472656 135.496094 319.304688 137.648438 320.082031 139.820312 C 320.859375 141.996094 321.582031 144.183594 322.253906 146.394531 C 322.921875 148.601562 323.539062 150.824219 324.097656 153.0625 C 324.660156 155.300781 325.164062 157.550781 325.613281 159.816406 C 326.0625 162.078125 326.457031 164.351562 326.796875 166.632812 C 327.136719 168.917969 327.417969 171.207031 327.644531 173.503906 C 327.871094 175.800781 328.039062 178.101562 328.152344 180.40625 C 328.265625 182.710938 328.324219 185.015625 328.324219 187.324219 Z M 328.324219 187.324219 "/></g><path style="fill-rule:evenodd;fill:#ffffff;fill-opacity:1;stroke-width:6.945;stroke-linecap:butt;stroke-linejoin:miter;stroke:#373435;stroke-opacity:1;stroke-miterlimit:4;" d="M 4491.958659 4425.00238 L 4491.035121 4425.00238 C 4491.035121 4425.00238 4491.035121 4425.00238 4491.958659 4425.00238 Z M 3335.997782 4425.00238 C 3366.936282 4423.001383 3396.027708 4406.993403 3412.959225 4378.979437 C 3422.964213 4362.971457 3428.043668 4346.03994 3428.043668 4328.030962 L 3486.996134 4229.982083 L 4614.943045 2387.986903 C 4731.000901 2198.046061 4980.971669 2138.016135 5171.989971 2254.073991 C 5262.958396 2309.947999 5328.067777 2399.992888 5353.003285 2504.968296 C 5379.016253 2611.021165 5361.930812 2719.075031 5306.056805 2810.966994 L 4437.008188 4229.982083 L 4408.994223 4276.928564 C 4380.980258 4322.951507 4394.98724 4382.981432 4441.010183 4410.995398 C 4457.018163 4420.076848 4473.949681 4425.00238 4491.035121 4425.00238 Z M 3323.991797 4425.00238 L 3335.997782 4425.00238 C 3331.995787 4425.00238 3327.993792 4425.00238 3323.991797 4425.00238 Z M 2218.055859 4900.008408 C 2218.055859 5159.984163 2428.930213 5373.013437 2687.982431 5375.014435 C 2689.983428 5375.014435 2691.984426 5375.014435 2693.061886 5375.014435 L 8418.069721 5375.014435 C 8680.046473 5375.014435 8893.075748 5161.98516 8893.075748 4900.008408 C 8893.075748 4638.031655 8680.046473 4425.00238 8418.069721 4425.00238 L 7782.060354 4425.00238 C 7780.982894 4425.00238 7780.982894 4425.00238 7780.982894 4425.00238 C 7780.982894 4425.00238 7780.059357 4425.00238 7780.059357 4425.00238 L 6621.020023 4425.00238 C 6619.942562 4425.00238 6619.019025 4425.00238 6617.018028 4425.00238 L 4491.958659 4425.00238 C 4525.052079 4425.00238 4555.990579 4408.070863 4574.923094 4378.979437 L 4666.045443 4229.982083 L 5471.985676 2913.017868 C 5516.931159 2838.057422 5546.022584 2756.016524 5556.027572 2671.051091 C 5550.024579 2623.950687 5550.024579 2577.004207 5554.950112 2530.981264 C 5552.949114 2506.969294 5548.023582 2482.957323 5542.944127 2460.022813 C 5504.925174 2303.945007 5409.031215 2172.033093 5272.963384 2087.991197 C 4990.976656 1916.059333 4620.946037 2005.026761 4449.014173 2287.013489 L 3259.959876 4229.982083 L 3235.024369 4270.002034 C 3207.010403 4314.947517 3221.940923 4374.977442 3267.963866 4402.991408 L 3279.969852 4410.995398 C 3293.976834 4418.999388 3309.061277 4423.92492 3323.991797 4425.00238 L 2693.061886 4425.00238 C 2430.931211 4425.00238 2218.055859 4638.031655 2218.055859 4900.008408 Z M 2218.055859 4900.008408 " transform="matrix(0.025378,0,0,0.025378,46.323532,46.323527)"/><path style=" stroke:none;fill-rule:evenodd;fill:#000000;fill-opacity:1;" d="M 259.957031 187.679688 L 114.667969 187.679688 C 105.300781 187.679688 97.6875 180.039062 97.6875 170.675781 C 97.6875 161.3125 105.300781 153.671875 114.667969 153.671875 L 259.957031 153.671875 C 269.320312 153.671875 276.933594 161.3125 276.933594 170.675781 C 276.933594 180.039062 269.320312 187.679688 259.957031 187.679688 Z M 114.667969 158.621094 C 108.015625 158.621094 102.613281 164.027344 102.613281 170.675781 C 102.613281 177.324219 108.015625 182.730469 114.667969 182.730469 L 259.957031 182.730469 C 266.605469 182.730469 272.011719 177.324219 272.011719 170.675781 C 272.011719 164.027344 266.605469 158.621094 259.957031 158.621094 Z M 114.667969 158.621094 "/><path style=" stroke:none;fill-rule:evenodd;fill:#000000;fill-opacity:1;" d="M 229.171875 277.542969 L 145.449219 277.542969 C 139.738281 277.542969 134.613281 275.691406 130.605469 272.1875 C 126.875 268.964844 124.335938 264.445312 123.445312 259.472656 L 110.226562 185.523438 C 110.097656 184.761719 110.328125 183.972656 110.859375 183.390625 C 111.394531 182.832031 112.152344 182.550781 112.941406 182.628906 C 113.523438 182.703125 114.109375 182.730469 114.667969 182.730469 L 259.957031 182.730469 C 260.511719 182.730469 261.097656 182.703125 261.679688 182.628906 C 262.46875 182.550781 263.230469 182.832031 263.761719 183.390625 C 264.292969 183.972656 264.523438 184.761719 264.394531 185.523438 L 251.175781 259.472656 C 250.285156 264.445312 247.75 268.964844 244.019531 272.1875 C 240.007812 275.691406 234.882812 277.542969 229.171875 277.542969 Z M 115.628906 187.679688 L 128.320312 258.609375 C 129.5625 265.589844 135.347656 272.617188 145.449219 272.617188 L 229.171875 272.617188 C 239.296875 272.617188 245.058594 265.589844 246.300781 258.609375 L 258.992188 187.679688 Z M 115.628906 187.679688 "/><path style=" stroke:none;fill-rule:evenodd;fill:#000000;fill-opacity:1;" d="M 229.550781 260.335938 C 228.207031 260.335938 227.089844 259.246094 227.089844 257.875 L 227.089844 202.296875 C 227.089844 200.925781 228.207031 199.808594 229.550781 199.808594 C 230.921875 199.808594 232.039062 200.925781 232.039062 202.296875 L 232.039062 257.875 C 232.039062 259.246094 230.921875 260.335938 229.550781 260.335938 Z M 229.550781 260.335938 "/><path style=" stroke:none;fill-rule:evenodd;fill:#000000;fill-opacity:1;" d="M 212.652344 260.335938 C 211.304688 260.335938 210.1875 259.246094 210.1875 257.875 L 210.1875 202.296875 C 210.1875 200.925781 211.304688 199.808594 212.652344 199.808594 C 214.019531 199.808594 215.136719 200.925781 215.136719 202.296875 L 215.136719 257.875 C 215.136719 259.246094 214.019531 260.335938 212.652344 260.335938 Z M 212.652344 260.335938 "/><path style=" stroke:none;fill-rule:evenodd;fill:#000000;fill-opacity:1;" d="M 195.773438 260.335938 C 194.402344 260.335938 193.289062 259.246094 193.289062 257.875 L 193.289062 202.296875 C 193.289062 200.925781 194.402344 199.808594 195.773438 199.808594 C 197.121094 199.808594 198.234375 200.925781 198.234375 202.296875 L 198.234375 257.875 C 198.234375 259.246094 197.121094 260.335938 195.773438 260.335938 Z M 195.773438 260.335938 "/><path style=" stroke:none;fill-rule:evenodd;fill:#000000;fill-opacity:1;" d="M 178.871094 260.335938 C 177.503906 260.335938 176.386719 259.246094 176.386719 257.875 L 176.386719 202.296875 C 176.386719 200.925781 177.503906 199.808594 178.871094 199.808594 C 180.21875 199.808594 181.335938 200.925781 181.335938 202.296875 L 181.335938 257.875 C 181.335938 259.246094 180.21875 260.335938 178.871094 260.335938 Z M 178.871094 260.335938 "/><path style=" stroke:none;fill-rule:evenodd;fill:#000000;fill-opacity:1;" d="M 161.972656 260.335938 C 160.601562 260.335938 159.484375 259.246094 159.484375 257.875 L 159.484375 202.296875 C 159.484375 200.925781 160.601562 199.808594 161.972656 199.808594 C 163.316406 199.808594 164.433594 200.925781 164.433594 202.296875 L 164.433594 257.875 C 164.433594 259.246094 163.316406 260.335938 161.972656 260.335938 Z M 161.972656 260.335938 "/><path style=" stroke:none;fill-rule:evenodd;fill:#000000;fill-opacity:1;" d="M 145.070312 260.335938 C 143.699219 260.335938 142.582031 259.246094 142.582031 257.875 L 142.582031 202.296875 C 142.582031 200.925781 143.699219 199.808594 145.070312 199.808594 C 146.414062 199.808594 147.53125 200.925781 147.53125 202.296875 L 147.53125 257.875 C 147.53125 259.246094 146.414062 260.335938 145.070312 260.335938 Z M 145.070312 260.335938 "/><path style=" stroke:none;fill-rule:evenodd;fill:#000000;fill-opacity:1;" d="M 160.320312 158.621094 C 159.863281 158.621094 159.433594 158.496094 159.027344 158.265625 C 157.859375 157.554688 157.503906 156.03125 158.214844 154.863281 L 180.980469 117.660156 C 182.398438 115.328125 182.832031 112.585938 182.171875 109.894531 C 181.539062 107.230469 179.886719 104.945312 177.578125 103.527344 C 172.730469 100.582031 166.386719 102.105469 163.441406 106.925781 L 133.320312 156.160156 C 133.320312 156.617188 133.191406 157.046875 132.9375 157.453125 C 132.226562 158.59375 130.707031 158.976562 129.5625 158.265625 L 129.257812 158.0625 C 128.089844 157.351562 127.710938 155.828125 128.421875 154.6875 L 159.230469 104.363281 C 163.59375 97.207031 172.984375 94.949219 180.140625 99.3125 C 183.59375 101.445312 186.027344 104.792969 186.992188 108.753906 C 187.933594 112.710938 187.296875 116.796875 185.191406 120.25 L 162.425781 157.453125 C 161.945312 158.191406 161.132812 158.621094 160.320312 158.621094 Z M 160.320312 158.621094 "/><path style=" stroke:none;fill-rule:evenodd;fill:#000000;fill-opacity:1;" d="M 243.789062 158.621094 C 242.953125 158.621094 242.140625 158.191406 241.683594 157.429688 C 241.429688 157.046875 241.328125 156.589844 241.328125 156.160156 L 211.179688 106.925781 C 208.234375 102.105469 201.890625 100.582031 197.042969 103.527344 C 192.222656 106.496094 190.699219 112.839844 193.644531 117.660156 L 216.40625 154.863281 C 217.117188 156.03125 216.761719 157.554688 215.59375 158.265625 C 214.425781 158.976562 212.90625 158.59375 212.195312 157.429688 L 189.429688 120.25 C 185.066406 113.066406 187.324219 103.703125 194.480469 99.3125 C 201.636719 94.949219 211.027344 97.207031 215.390625 104.363281 L 246.199219 154.660156 C 246.910156 155.828125 246.53125 157.351562 245.363281 158.0625 L 245.058594 158.242188 C 244.675781 158.496094 244.222656 158.621094 243.789062 158.621094 Z M 243.789062 158.621094 "/><path style="fill-rule:evenodd;fill:#378b4e;fill-opacity:1;stroke-width:6.945;stroke-linecap:butt;stroke-linejoin:miter;stroke:#373435;stroke-opacity:1;stroke-miterlimit:4;" d="M 8380.050768 5570.034732 L 2730.926916 5570.034732 L 3231.022374 8364.966502 C 3279.969852 8640.0267 3507.929646 8916.933973 3905.97423 8916.933973 L 7205.003453 8916.933973 C 7603.971575 8916.933973 7831.007832 8640.0267 7879.95531 8364.966502 Z M 3792.994832 8336.029 L 3792.994832 6146.014173 C 3792.994832 6091.98724 3837.016777 6047.965294 3891.04371 6047.965294 C 3943.993183 6047.965294 3988.015129 6091.98724 3988.015129 6146.014173 L 3988.015129 8336.029 C 3988.015129 8390.055933 3943.993183 8433.000418 3891.04371 8433.000418 C 3837.016777 8433.000418 3792.994832 8390.055933 3792.994832 8336.029 Z M 4459.019161 8336.029 L 4459.019161 6146.014173 C 4459.019161 6091.98724 4503.041106 6047.965294 4557.06804 6047.965294 C 4610.017512 6047.965294 4654.039458 6091.98724 4654.039458 6146.014173 L 4654.039458 8336.029 C 4654.039458 8390.055933 4610.017512 8433.000418 4557.06804 8433.000418 C 4503.041106 8433.000418 4459.019161 8390.055933 4459.019161 8336.029 Z M 5125.04349 8336.029 L 5125.04349 6146.014173 C 5125.04349 6091.98724 5169.065436 6047.965294 5222.938446 6047.965294 C 5276.041842 6047.965294 5320.063787 6091.98724 5320.063787 6146.014173 L 5320.063787 8336.029 C 5320.063787 8390.055933 5276.041842 8433.000418 5222.938446 8433.000418 C 5169.065436 8433.000418 5125.04349 8390.055933 5125.04349 8336.029 Z M 5791.067819 8336.029 L 5791.067819 6146.014173 C 5791.067819 6091.98724 5834.935842 6047.965294 5888.962775 6047.965294 C 5942.066171 6047.965294 5985.934194 6091.98724 5985.934194 6146.014173 L 5985.934194 8336.029 C 5985.934194 8390.055933 5942.066171 8433.000418 5888.962775 8433.000418 C 5834.935842 8433.000418 5791.067819 8390.055933 5791.067819 8336.029 Z M 6456.938226 8336.029 L 6456.938226 6146.014173 C 6456.938226 6091.98724 6500.960171 6047.965294 6554.063567 6047.965294 C 6607.936577 6047.965294 6651.958523 6091.98724 6651.958523 6146.014173 L 6651.958523 8336.029 C 6651.958523 8390.055933 6607.936577 8433.000418 6554.063567 8433.000418 C 6500.960171 8433.000418 6456.938226 8390.055933 6456.938226 8336.029 Z M 7122.962555 8336.029 L 7122.962555 6146.014173 C 7122.962555 6091.98724 7166.9845 6047.965294 7219.933973 6047.965294 C 7273.960906 6047.965294 7317.982852 6091.98724 7317.982852 6146.014173 L 7317.982852 8336.029 C 7317.982852 8390.055933 7273.960906 8433.000418 7219.933973 8433.000418 C 7166.9845 8433.000418 7122.962555 8390.055933 7122.962555 8336.029 Z M 7122.962555 8336.029 " transform="matrix(0.025378,0,0,0.025378,46.323532,46.323527)"/><path style="fill-rule:evenodd;fill:#ffffff;fill-opacity:1;stroke-width:6.945;stroke-linecap:butt;stroke-linejoin:miter;stroke:#373435;stroke-opacity:1;stroke-miterlimit:4;" d="M 4614.943045 2387.986903 L 3486.996134 4229.982083 L 4437.008188 4229.982083 L 5306.056805 2810.966994 C 5361.930812 2719.075031 5379.016253 2611.021165 5353.003285 2504.968296 C 5328.067777 2399.992888 5262.958396 2309.947999 5171.989971 2254.073991 C 4980.971669 2138.016135 4731.000901 2198.046061 4614.943045 2387.986903 Z M 4614.943045 2387.986903 " transform="matrix(0.025378,0,0,0.025378,46.323532,46.323527)"/><path style="fill-rule:evenodd;fill:#ffffff;fill-opacity:1;stroke-width:6.945;stroke-linecap:butt;stroke-linejoin:miter;stroke:#373435;stroke-opacity:1;stroke-miterlimit:4;" d="M 5805.074802 2810.966994 L 6673.969495 4229.982083 L 7623.98155 4229.982083 L 6496.034639 2387.986903 C 6379.976783 2198.046061 6130.006015 2138.016135 5938.987713 2254.073991 C 5749.046871 2371.055385 5689.016946 2621.026152 5805.074802 2810.966994 Z M 5805.074802 2810.966994 " transform="matrix(0.025378,0,0,0.025378,46.323532,46.323527)"/></g></svg>