<svg xmlns="http://www.w3.org/2000/svg" xmlns:xlink="http://www.w3.org/1999/xlink" width="500" zoomAndPan="magnify" viewBox="0 0 375 374.999991" height="500" preserveAspectRatio="xMidYMid meet" version="1.2"><defs><clipPath id="efde968606"><path d="M 0 0 L 374.25 0 L 374.25 375 L 0 375 Z M 0 0 "/></clipPath></defs><g id="eab168641a"><g clip-rule="nonzero" clip-path="url(#efde968606)"><path style=" stroke:none;fill-rule:nonzero;fill:#000000;fill-opacity:1;" d="M 374.246094 187.347656 C 374.246094 190.417969 374.171875 193.484375 374.023438 196.550781 C 373.871094 199.613281 373.648438 202.671875 373.347656 205.726562 C 373.046875 208.78125 372.671875 211.824219 372.222656 214.859375 C 371.773438 217.894531 371.25 220.917969 370.652344 223.929688 C 370.054688 226.9375 369.382812 229.929688 368.640625 232.90625 C 367.894531 235.882812 367.078125 238.839844 366.191406 241.777344 C 365.300781 244.710938 364.339844 247.625 363.308594 250.511719 C 362.277344 253.402344 361.175781 256.265625 360.003906 259.101562 C 358.832031 261.933594 357.589844 264.738281 356.28125 267.515625 C 354.972656 270.285156 353.59375 273.027344 352.152344 275.734375 C 350.707031 278.4375 349.199219 281.109375 347.625 283.742188 C 346.050781 286.371094 344.414062 288.964844 342.710938 291.515625 C 341.011719 294.066406 339.246094 296.574219 337.421875 299.039062 C 335.597656 301.503906 333.714844 303.921875 331.773438 306.296875 C 329.832031 308.667969 327.832031 310.992188 325.773438 313.265625 C 323.71875 315.535156 321.605469 317.757812 319.441406 319.929688 C 317.277344 322.097656 315.058594 324.214844 312.789062 326.273438 C 310.519531 328.335938 308.203125 330.339844 305.835938 332.285156 C 303.46875 334.230469 301.054688 336.121094 298.59375 337.945312 C 296.132812 339.773438 293.632812 341.539062 291.085938 343.246094 C 288.539062 344.949219 285.953125 346.589844 283.324219 348.167969 C 280.699219 349.746094 278.035156 351.257812 275.335938 352.707031 C 272.632812 354.152344 269.898438 355.53125 267.128906 356.84375 C 264.363281 358.152344 261.5625 359.398438 258.734375 360.574219 C 255.902344 361.746094 253.046875 362.851562 250.164062 363.886719 C 247.28125 364.917969 244.375 365.882812 241.445312 366.773438 C 238.515625 367.664062 235.5625 368.480469 232.59375 369.226562 C 229.621094 369.972656 226.636719 370.640625 223.632812 371.242188 C 220.628906 371.839844 217.609375 372.363281 214.582031 372.816406 C 211.554688 373.265625 208.515625 373.640625 205.46875 373.941406 C 202.421875 374.242188 199.367188 374.46875 196.308594 374.621094 C 193.25 374.769531 190.1875 374.84375 187.125 374.84375 C 184.0625 374.84375 181.003906 374.769531 177.945312 374.621094 C 174.886719 374.46875 171.832031 374.246094 168.785156 373.941406 C 165.738281 373.644531 162.699219 373.269531 159.667969 372.816406 C 156.640625 372.367188 153.625 371.839844 150.621094 371.242188 C 147.617188 370.644531 144.628906 369.972656 141.660156 369.226562 C 138.6875 368.480469 135.738281 367.664062 132.808594 366.773438 C 129.878906 365.882812 126.96875 364.917969 124.085938 363.886719 C 121.203125 362.851562 118.347656 361.746094 115.515625 360.574219 C 112.6875 359.398438 109.890625 358.152344 107.121094 356.84375 C 104.351562 355.53125 101.617188 354.152344 98.917969 352.707031 C 96.214844 351.257812 93.554688 349.746094 90.925781 348.167969 C 88.300781 346.589844 85.710938 344.949219 83.167969 343.246094 C 80.621094 341.539062 78.117188 339.773438 75.65625 337.945312 C 73.195312 336.121094 70.785156 334.230469 68.417969 332.285156 C 66.050781 330.339844 63.730469 328.335938 61.460938 326.273438 C 59.191406 324.214844 56.976562 322.097656 54.808594 319.929688 C 52.644531 317.757812 50.535156 315.535156 48.476562 313.265625 C 46.421875 310.992188 44.421875 308.667969 42.476562 306.296875 C 40.535156 303.921875 38.652344 301.503906 36.828125 299.039062 C 35.003906 296.574219 33.242188 294.066406 31.539062 291.515625 C 29.839844 288.964844 28.199219 286.371094 26.625 283.742188 C 25.050781 281.109375 23.542969 278.4375 22.097656 275.734375 C 20.65625 273.027344 19.277344 270.285156 17.96875 267.511719 C 16.660156 264.738281 15.417969 261.933594 14.246094 259.101562 C 13.074219 256.265625 11.972656 253.402344 10.941406 250.511719 C 9.910156 247.625 8.949219 244.710938 8.0625 241.777344 C 7.171875 238.839844 6.355469 235.882812 5.613281 232.90625 C 4.867188 229.929688 4.199219 226.9375 3.601562 223.929688 C 3.003906 220.917969 2.480469 217.894531 2.03125 214.859375 C 1.578125 211.824219 1.207031 208.78125 0.90625 205.726562 C 0.605469 202.671875 0.378906 199.613281 0.230469 196.550781 C 0.078125 193.484375 0.00390625 190.417969 0.00390625 187.347656 C 0.00390625 184.28125 0.078125 181.214844 0.230469 178.148438 C 0.378906 175.085938 0.605469 172.027344 0.90625 168.972656 C 1.207031 165.917969 1.578125 162.871094 2.03125 159.835938 C 2.480469 156.800781 3.003906 153.78125 3.601562 150.769531 C 4.199219 147.761719 4.867188 144.765625 5.613281 141.789062 C 6.355469 138.816406 7.171875 135.859375 8.0625 132.921875 C 8.949219 129.984375 9.910156 127.074219 10.941406 124.183594 C 11.972656 121.292969 13.074219 118.429688 14.246094 115.597656 C 15.417969 112.761719 16.660156 109.957031 17.96875 107.183594 C 19.277344 104.410156 20.65625 101.667969 22.097656 98.964844 C 23.542969 96.257812 25.050781 93.585938 26.625 90.957031 C 28.199219 88.324219 29.839844 85.734375 31.539062 83.183594 C 33.242188 80.628906 35.003906 78.121094 36.828125 75.65625 C 38.652344 73.191406 40.535156 70.773438 42.476562 68.402344 C 44.421875 66.03125 46.421875 63.707031 48.476562 61.433594 C 50.535156 59.160156 52.644531 56.9375 54.808594 54.769531 C 56.976562 52.597656 59.191406 50.484375 61.460938 48.421875 C 63.730469 46.363281 66.050781 44.359375 68.417969 42.414062 C 70.785156 40.464844 73.195312 38.578125 75.65625 36.75 C 78.117188 34.921875 80.621094 33.15625 83.167969 31.453125 C 85.710938 29.746094 88.300781 28.105469 90.925781 26.527344 C 93.550781 24.949219 96.214844 23.4375 98.917969 21.992188 C 101.617188 20.546875 104.351562 19.167969 107.121094 17.855469 C 109.890625 16.542969 112.6875 15.300781 115.515625 14.125 C 118.347656 12.953125 121.203125 11.847656 124.085938 10.8125 C 126.96875 9.78125 129.875 8.816406 132.808594 7.925781 C 135.738281 7.039062 138.6875 6.21875 141.660156 5.472656 C 144.628906 4.726562 147.617188 4.054688 150.621094 3.457031 C 153.625 2.859375 156.640625 2.332031 159.667969 1.882812 C 162.699219 1.433594 165.738281 1.058594 168.785156 0.757812 C 171.832031 0.457031 174.886719 0.230469 177.945312 0.0820312 C 181.003906 -0.0703125 184.0625 -0.144531 187.125 -0.148438 C 190.1875 -0.144531 193.25 -0.0703125 196.308594 0.0820312 C 199.367188 0.230469 202.421875 0.457031 205.46875 0.757812 C 208.515625 1.058594 211.554688 1.433594 214.582031 1.882812 C 217.609375 2.332031 220.628906 2.855469 223.632812 3.457031 C 226.636719 4.054688 229.621094 4.726562 232.59375 5.472656 C 235.5625 6.21875 238.511719 7.035156 241.445312 7.925781 C 244.375 8.816406 247.28125 9.78125 250.164062 10.8125 C 253.046875 11.847656 255.902344 12.953125 258.734375 14.125 C 261.5625 15.300781 264.363281 16.542969 267.128906 17.855469 C 269.898438 19.167969 272.632812 20.546875 275.335938 21.992188 C 278.035156 23.4375 280.699219 24.949219 283.324219 26.527344 C 285.953125 28.105469 288.539062 29.746094 291.085938 31.453125 C 293.628906 33.15625 296.132812 34.921875 298.59375 36.75 C 301.054688 38.578125 303.46875 40.464844 305.835938 42.414062 C 308.203125 44.359375 310.519531 46.363281 312.789062 48.421875 C 315.058594 50.484375 317.273438 52.597656 319.441406 54.769531 C 321.605469 56.9375 323.714844 59.160156 325.773438 61.433594 C 327.828125 63.707031 329.828125 66.03125 331.773438 68.402344 C 333.714844 70.773438 335.597656 73.191406 337.421875 75.65625 C 339.246094 78.121094 341.011719 80.628906 342.710938 83.179688 C 344.414062 85.730469 346.050781 88.324219 347.625 90.957031 C 349.199219 93.585938 350.707031 96.257812 352.152344 98.964844 C 353.59375 101.667969 354.972656 104.410156 356.28125 107.183594 C 357.589844 109.957031 358.832031 112.761719 360.003906 115.597656 C 361.175781 118.429688 362.277344 121.292969 363.308594 124.183594 C 364.339844 127.074219 365.300781 129.984375 366.191406 132.921875 C 367.078125 135.859375 367.894531 138.8125 368.640625 141.789062 C 369.382812 144.765625 370.054688 147.761719 370.652344 150.769531 C 371.25 153.777344 371.773438 156.800781 372.222656 159.835938 C 372.671875 162.871094 373.046875 165.917969 373.347656 168.96875 C 373.648438 172.023438 373.871094 175.082031 374.023438 178.148438 C 374.171875 181.214844 374.246094 184.28125 374.246094 187.347656 Z M 374.246094 187.347656 "/></g><path style="fill-rule:evenodd;fill:#ffffff;fill-opacity:1;stroke-width:2.14;stroke-linecap:round;stroke-linejoin:round;stroke:#ffffff;stroke-opacity:1;stroke-miterlimit:1.5;" d="M 30640.398774 9422.348757 L 30685.698499 9422.030666 L 30795.699114 9582.121293 L 30750.000303 9581.71931 Z M 30640.398774 9422.348757 " transform="matrix(1.115832,0,0,1.117507,-34089.106477,-10433.478995)"/><path style="fill-rule:evenodd;fill:#ffffff;fill-opacity:1;stroke-width:2.14;stroke-linecap:round;stroke-linejoin:round;stroke:#ffffff;stroke-opacity:1;stroke-miterlimit:1.5;" d="M 30776.802057 9422.030666 L 30790.899583 9422.030666 L 30653.999194 9582.121293 L 30640.398774 9582.121293 Z M 30776.802057 9422.030666 " transform="matrix(1.115832,0,0,1.117507,-34089.106477,-10433.478995)"/><path style=" stroke:none;fill-rule:evenodd;fill:#000000;fill-opacity:1;" d="M 121.292969 109.59375 L 144.726562 109.726562 L 253.070312 265.105469 L 229.640625 265.070312 Z M 121.292969 109.59375 "/><path style=" stroke:none;fill-rule:evenodd;fill:#000000;fill-opacity:1;" d="M 121.292969 109.59375 L 144.726562 109.726562 L 253.070312 265.105469 L 229.640625 265.070312 Z M 123.078125 110.542969 C 123.078125 110.542969 230.085938 264.132812 230.085938 264.132812 C 230.085938 264.132812 251.289062 264.164062 251.289062 264.164062 L 144.167969 110.664062 Z M 123.078125 110.542969 "/></g></svg>